<?xml version="1.0" standalone="no"?>
<!DOCTYPE svg PUBLIC "-//W3C//DTD SVG 20010904//EN"
 "http://www.w3.org/TR/2001/REC-SVG-20010904/DTD/svg10.dtd">
<svg version="1.0" xmlns="http://www.w3.org/2000/svg"
 width="234.000000pt" height="215.000000pt" viewBox="0 0 234.000000 215.000000"
 preserveAspectRatio="xMidYMid meet">

<g transform="translate(0.000000,215.000000) scale(0.100000,-0.100000)"
fill="#000000" stroke="none">
<path d="M498 1981 c32 -31 54 -62 61 -87 7 -25 11 -201 11 -499 0 -445 1
-462 21 -499 34 -64 86 -102 213 -157 163 -69 276 -142 276 -177 0 -15 -50
-14 -280 3 -50 3 -57 2 -30 -5 86 -21 306 -31 473 -21 144 10 340 41 356 57 7
7 -79 -6 -109 -16 -37 -14 -351 -30 -369 -20 -24 13 48 76 139 123 41 21 77
42 80 46 3 4 47 23 97 41 80 28 99 40 143 86 39 41 50 60 51 86 0 18 0 228 -1
466 0 289 3 446 10 473 8 28 29 59 65 95 l54 54 -656 0 -656 0 51 -49z m568
18 c3 -6 8 -125 10 -264 3 -192 0 -254 -9 -257 -23 -8 -456 -7 -461 1 -3 5 -6
95 -7 201 -1 200 -7 233 -50 289 -10 13 -19 26 -19 30 0 3 119 7 264 9 192 2
266 0 272 -9z m614 0 c0 -5 -8 -16 -19 -26 -42 -41 -46 -61 -51 -283 l-5 -215
-239 -3 c-138 -1 -242 2 -245 7 -3 5 -5 124 -3 264 l3 256 42 4 c77 8 517 4
517 -4z m-608 -743 c3 -184 3 -184 -18 -176 -13 5 -26 4 -33 -3 -9 -9 -16 -9
-30 0 -12 8 -33 8 -66 2 -27 -5 -72 -9 -100 -9 -27 1 -90 2 -140 2 l-90 1 3
184 3 183 234 0 234 0 3 -184z m538 132 c0 -48 -3 -56 -32 -80 -38 -30 -32
-49 7 -24 l27 17 -4 -188 c-3 -177 -4 -190 -27 -226 -25 -41 -70 -68 -146 -86
-75 -19 -227 -107 -292 -170 -8 -7 -16 -12 -18 -10 -7 8 -14 519 -8 667 l6
152 244 0 243 0 0 -52z m-538 -554 c2 -113 1 -207 -1 -210 -2 -2 -25 14 -50
35 -65 55 -152 103 -254 141 -124 47 -167 99 -167 206 l0 34 235 0 234 0 3
-206z"/>
<path d="M845 1890 c-12 -4 -27 -15 -34 -24 -10 -11 -31 -16 -75 -16 -43 0
-70 -6 -93 -20 -18 -11 -33 -22 -33 -26 0 -8 73 -248 77 -254 2 -2 18 4 36 13
18 9 55 20 82 24 28 3 73 19 100 34 28 15 73 31 102 35 l52 6 -31 82 c-17 44
-34 95 -39 112 -6 20 -18 34 -32 38 -31 8 -88 6 -112 -4z m100 -19 c5 -9 65
-172 65 -178 0 -2 -12 -3 -27 -3 -16 0 -47 -11 -70 -25 -50 -28 -47 -32 -83
89 l-24 78 27 24 c29 25 100 34 112 15z m-133 -131 c35 -105 35 -110 -2 -110
-16 0 -48 -7 -70 -16 -23 -9 -42 -15 -44 -13 -2 2 -15 42 -30 89 -15 47 -29
90 -32 97 -9 20 47 43 100 40 l49 -2 29 -85z"/>
<path d="M1356 1944 c-3 -9 -6 -29 -6 -45 0 -28 -10 -35 -47 -30 -26 4 -3 -29
29 -41 18 -8 28 -86 25 -200 -2 -61 -4 -69 -27 -80 -14 -7 -26 -20 -26 -29 -1
-13 13 -18 69 -23 70 -6 93 -2 68 13 -7 5 -11 13 -8 18 4 6 -5 16 -19 24 -21
11 -25 19 -23 54 1 22 -2 47 -5 56 -5 13 -3 143 3 167 1 1 10 2 20 2 25 0 17
36 -10 43 -14 4 -19 14 -19 40 0 39 -14 57 -24 31z"/>
<path d="M730 1210 c-12 -8 -11 -10 8 -10 12 0 22 5 22 10 0 13 -11 13 -30 0z"/>
<path d="M815 1189 c-16 -4 -55 -12 -85 -18 -52 -9 -50 -9 31 -5 83 4 179 -13
203 -37 13 -12 46 -12 46 1 0 14 -29 27 -80 35 -25 4 -54 12 -65 19 -13 8 -31
10 -50 5z"/>
<path d="M1544 1380 c-51 -28 -70 -52 -58 -71 4 -6 10 -6 17 0 7 5 23 11 36
13 25 3 66 58 59 78 -1 5 -26 -4 -54 -20z"/>
<path d="M1380 1328 c-52 -29 -74 -54 -66 -73 4 -12 10 -14 19 -8 6 6 24 13
39 17 20 4 32 17 43 42 22 53 20 54 -35 22z"/>
<path d="M1268 1173 c-24 -6 -23 -20 3 -33 24 -13 26 -12 31 14 3 20 -7 26
-34 19z"/>
<path d="M1413 1173 c-27 -5 -28 -9 -7 -31 15 -15 18 -14 30 3 15 21 18 36 7
34 -5 -1 -18 -4 -30 -6z"/>
<path d="M1570 1160 c0 -5 5 -10 10 -10 6 0 10 5 10 10 0 6 -4 10 -10 10 -5 0
-10 -4 -10 -10z"/>
<path d="M1168 1075 c-16 -13 -28 -27 -28 -30 0 -3 47 -5 104 -5 99 0 104 1
120 25 9 13 16 27 16 30 0 3 -42 5 -92 5 -84 -1 -96 -3 -120 -25z"/>
<path d="M2138 714 c-16 -8 -28 -17 -28 -20 0 -3 5 -2 10 1 15 9 12 -2 -6 -30
-9 -14 -14 -25 -11 -25 8 0 70 80 66 85 -2 2 -16 -3 -31 -11z"/>
<path d="M90 711 c0 -11 88 -145 129 -196 19 -23 30 -47 28 -57 -4 -13 1 -18
14 -18 24 0 24 11 0 41 -47 61 -111 162 -111 175 0 12 6 11 29 -5 41 -30 206
-111 224 -111 22 0 27 -22 27 -109 0 -71 2 -80 30 -111 37 -44 37 -54 3 -45
-16 4 -25 4 -22 0 4 -3 30 -12 58 -20 l51 -13 0 35 c0 35 1 35 33 30 17 -3 94
-17 171 -31 243 -45 655 -33 871 25 87 23 86 23 92 0 5 -20 11 -21 58 -17 28
3 87 19 131 36 43 16 84 30 90 30 15 0 166 78 182 94 11 11 8 13 -17 14 -19 0
-28 -4 -25 -11 4 -12 -46 -39 -166 -87 -30 -12 -70 -29 -88 -37 -45 -20 -102
-28 -102 -15 0 6 16 20 35 32 l35 22 0 97 0 98 81 37 c44 21 79 40 76 42 -2 2
-35 -9 -72 -26 -38 -17 -72 -27 -76 -23 -4 4 -10 22 -13 38 -2 17 -5 31 -5 32
-1 1 -13 -2 -28 -8 -16 -6 -50 -17 -78 -24 -27 -7 -41 -13 -29 -14 11 -1 42 5
67 13 25 7 48 11 51 8 4 -3 6 -60 6 -127 0 -86 -4 -126 -12 -133 -7 -5 -43
-15 -80 -21 -36 -6 -81 -17 -100 -25 -18 -8 -103 -24 -188 -37 -122 -18 -196
-23 -350 -23 -234 1 -371 20 -572 81 l-88 26 0 134 c0 136 2 143 40 123 20
-11 207 -60 229 -60 29 0 1 12 -60 26 -35 8 -86 23 -114 33 -27 10 -62 21 -77
25 -28 6 -28 6 -28 -45 0 -51 0 -51 -27 -44 -43 10 -206 89 -257 124 -47 33
-56 36 -56 22z m1678 -388 c-4 -22 -38 -30 -38 -10 0 14 13 24 33 26 5 1 7 -7
5 -16z m-1240 -5 c15 -15 16 -48 1 -48 -11 0 -48 40 -49 53 0 11 35 8 48 -5z"/>
<path d="M2034 654 c-18 -14 -18 -15 4 -4 12 6 22 13 22 15 0 8 -5 6 -26 -11z"/>
<path d="M2042 559 c-28 -39 -52 -74 -52 -78 0 -11 120 -30 126 -19 3 4 -8 8
-25 8 -60 0 -76 23 -48 65 26 39 59 95 55 95 -2 0 -27 -32 -56 -71z"/>
<path d="M1635 600 c-13 -5 -14 -9 -5 -9 8 0 24 4 35 9 13 5 14 9 5 9 -8 0
-24 -4 -35 -9z"/>
<path d="M558 483 c-9 -32 -15 -60 -12 -62 9 -9 22 15 38 67 11 38 12 52 3 52
-7 0 -20 -26 -29 -57z"/>
<path d="M1671 527 c9 -7 22 -32 31 -56 20 -63 42 -67 23 -5 -10 35 -11 51 -3
61 8 10 2 13 -28 13 -33 -1 -36 -3 -23 -13z"/>
<path d="M615 518 c-7 -24 -25 -93 -25 -100 0 -22 19 -4 25 23 8 36 22 28 27
-15 2 -16 8 -31 13 -33 14 -4 46 115 34 123 -5 3 -12 -3 -15 -13 -15 -46 -18
-47 -27 -10 -11 37 -24 48 -32 25z"/>
<path d="M1601 511 c-8 -14 -5 -23 10 -40 11 -11 24 -21 29 -21 6 0 10 -7 10
-15 0 -8 -7 -15 -15 -15 -8 0 -15 -4 -15 -10 0 -13 37 -13 45 1 12 18 -4 57
-25 64 -20 6 -28 35 -10 35 6 0 10 5 10 10 0 17 -29 11 -39 -9z"/>
<path d="M1555 485 c3 -14 7 -36 10 -49 6 -28 -13 -46 -26 -25 -5 8 -9 28 -9
46 0 29 -15 52 -26 40 -7 -7 17 -106 27 -113 6 -3 21 -3 35 0 27 7 30 28 13
89 -11 41 -32 52 -24 12z"/>
<path d="M761 479 c-26 -25 -30 -94 -5 -103 30 -11 53 -6 59 14 9 27 22 25 29
-4 8 -33 42 -43 67 -20 22 20 26 83 7 102 -21 21 -58 14 -68 -13 -7 -18 -17
-25 -35 -25 -22 0 -25 -4 -20 -20 5 -14 2 -20 -10 -20 -23 0 -29 26 -15 60 13
31 24 37 35 20 9 -14 28 -13 23 2 -8 23 -45 27 -67 7z m145 -34 c8 -21 -10
-70 -27 -70 -18 0 -22 25 -10 58 12 30 28 35 37 12z"/>
<path d="M1415 480 c-6 -10 -1 -61 11 -102 8 -28 27 -21 20 7 -8 30 10 34 19
5 3 -11 13 -20 21 -20 12 0 13 4 2 23 -7 12 -13 38 -13 57 0 30 -4 35 -27 38
-14 2 -29 -2 -33 -8z m45 -24 c0 -8 -4 -18 -10 -21 -5 -3 -10 -4 -10 -1 0 2
-3 11 -6 20 -4 11 -1 16 10 16 9 0 16 -6 16 -14z"/>
<path d="M1336 471 c-3 -5 1 -11 8 -14 10 -4 16 -24 18 -54 4 -68 21 -55 22
17 1 55 -1 60 -21 60 -12 0 -24 -4 -27 -9z"/>
<path d="M948 410 c-3 -51 0 -61 15 -66 12 -4 28 3 44 18 19 18 23 29 19 52
-8 39 -24 56 -51 56 -21 0 -24 -5 -27 -60z m51 18 c9 -24 -5 -68 -21 -68 -10
0 -11 74 -1 83 10 11 13 9 22 -15z"/>
<path d="M1083 449 c3 -13 9 -43 13 -66 7 -43 34 -62 34 -24 0 25 10 51 20 51
4 0 11 -16 14 -35 4 -19 11 -35 16 -35 8 0 30 85 30 117 0 25 -18 3 -22 -27
-4 -32 -22 -29 -26 5 -4 33 -26 27 -30 -8 -5 -37 -20 -34 -24 5 -2 17 -9 34
-17 36 -10 3 -12 -2 -8 -19z"/>
<path d="M1232 408 c3 -57 5 -63 26 -66 25 -4 30 13 6 22 -15 6 -15 8 0 25 17
18 16 20 -1 30 -17 10 -17 12 0 25 24 18 21 26 -8 26 -25 0 -26 -1 -23 -62z"/>
<path d="M118 410 c33 -31 112 -74 162 -89 25 -8 65 -20 89 -28 77 -24 55 -6
-26 22 -101 34 -209 88 -205 103 1 7 -8 12 -20 12 l-22 0 22 -20z"/>
</g>
</svg>
